<svg width="20" height="20" viewBox="0 0 20 20" fill="none" xmlns="http://www.w3.org/2000/svg">
<path d="M10 20C15.5228 20 20 15.5228 20 10C20 4.47715 15.5228 0 10 0C4.47715 0 0 4.47715 0 10C0 15.5228 4.47715 20 10 20Z" fill="#F7931A"/>
<path d="M9.79451 16.1111L8.70809 15.847L9.15352 14.1148C8.83099 14.0367 8.54648 13.9648 8.28506 13.8962L7.83352 15.6358L6.7471 15.3717L7.19796 13.6123L6.91821 13.5444C6.75457 13.503 6.58821 13.4609 6.42117 13.4202L5 13.0746L5.54321 11.8619C5.54932 11.8619 6.29012 12.0547 6.33358 12.0547C6.37659 12.0645 6.42052 12.0697 6.46463 12.0703C6.54641 12.0691 6.62585 12.0428 6.69217 11.995C6.75849 11.9471 6.80849 11.88 6.83537 11.8028L7.5463 9.0263L7.66105 9.05346C7.62488 9.03972 7.58792 9.02816 7.55037 9.01883L8.05556 7.03679C8.06919 6.88798 8.02345 6.73982 7.92832 6.62458C7.83318 6.50935 7.69635 6.43639 7.54765 6.42161C7.5429 6.4087 7.0479 6.29531 6.75593 6.23012L7.04586 5.09889L8.54988 5.46352V5.46895C8.77259 5.52259 8.99667 5.57284 9.24586 5.62784L9.69198 3.88889L10.7784 4.15302L10.3445 5.85802L10.443 5.87975C10.6976 5.93679 10.9604 5.99586 11.217 6.05765L11.6543 4.3642L12.7448 4.62833L12.2953 6.36728C13.9562 6.9234 14.6515 7.69747 14.4811 8.80222C14.4526 9.17858 14.3008 9.53503 14.0491 9.81629C13.7974 10.0976 13.46 10.2879 13.0891 10.3578C13.3344 10.4469 13.5578 10.5874 13.7445 10.7698C13.9311 10.9521 14.0767 11.1723 14.1715 11.4154C14.2662 11.6586 14.3079 11.9192 14.2939 12.1798C14.2798 12.4404 14.2103 12.695 14.0899 12.9265C13.9325 13.4297 13.6051 13.8625 13.1638 14.1508C12.7225 14.4392 12.1946 14.5652 11.6706 14.5073C11.1917 14.4995 10.7145 14.4486 10.2447 14.3552L9.79451 16.1111ZM9.23296 10.2899L8.63407 12.621L8.83778 12.6733C9.4263 12.8445 10.033 12.9452 10.6453 12.9734C11.4031 12.9734 11.854 12.712 11.9864 12.1959C12.0224 12.0723 12.0321 11.9425 12.0149 11.815C11.9977 11.6874 11.954 11.5648 11.8865 11.4551C11.471 10.7809 10.189 10.5011 9.4971 10.3504C9.39661 10.3273 9.30698 10.3076 9.23296 10.2899ZM10.0478 7.10877L9.50457 9.22321L9.68179 9.26802C10.1545 9.40755 10.6425 9.48873 11.1349 9.50975C11.8003 9.50975 12.2009 9.26531 12.3245 8.78389C12.3592 8.66677 12.3691 8.54369 12.3534 8.42254C12.3377 8.30139 12.2969 8.18486 12.2335 8.08043C11.877 7.50395 10.8327 7.2792 10.2719 7.15901C10.187 7.13932 10.1116 7.12302 10.0498 7.10809L10.0478 7.10877Z" fill="white"/>
</svg>
